<mxfile host="65bd71144e">
    <diagram id="_90SfMtrd41Q07Md4GRD" name="process_url()">
        <mxGraphModel dx="990" dy="404" grid="1" gridSize="10" guides="1" tooltips="1" connect="1" arrows="1" fold="1" page="1" pageScale="1" pageWidth="827" pageHeight="1169" math="0" shadow="0">
            <root>
                <mxCell id="jZQN-osaWB41KmL9wlx--0"/>
                <mxCell id="jZQN-osaWB41KmL9wlx--1" parent="jZQN-osaWB41KmL9wlx--0"/>
                <mxCell id="R4N-x4gXpx2hDFtST6ET-0" value="" style="ellipse;html=1;shape=startState;fillColor=#000000;strokeColor=#ff0000;" parent="jZQN-osaWB41KmL9wlx--1" vertex="1">
                    <mxGeometry x="245" y="124" width="30" height="30" as="geometry"/>
                </mxCell>
                <mxCell id="R4N-x4gXpx2hDFtST6ET-1" value="" style="edgeStyle=orthogonalEdgeStyle;html=1;verticalAlign=bottom;endArrow=open;endSize=8;strokeColor=#ff0000;entryX=0.5;entryY=0;entryDx=0;entryDy=0;" parent="jZQN-osaWB41KmL9wlx--1" source="R4N-x4gXpx2hDFtST6ET-0" target="R4N-x4gXpx2hDFtST6ET-4" edge="1">
                    <mxGeometry relative="1" as="geometry">
                        <mxPoint x="255" y="200" as="targetPoint"/>
                    </mxGeometry>
                </mxCell>
                <mxCell id="R4N-x4gXpx2hDFtST6ET-4" value="&lt;span style=&quot;text-align: left&quot;&gt;__validate_url(url:string)&lt;/span&gt;" style="rounded=1;whiteSpace=wrap;html=1;arcSize=40;fontColor=#000000;fillColor=#ffffc0;strokeColor=#ff0000;" parent="jZQN-osaWB41KmL9wlx--1" vertex="1">
                    <mxGeometry x="160" y="200" width="200" height="40" as="geometry"/>
                </mxCell>
                <mxCell id="R4N-x4gXpx2hDFtST6ET-5" value="bool" style="edgeStyle=orthogonalEdgeStyle;html=1;verticalAlign=bottom;endArrow=open;endSize=8;strokeColor=#ff0000;entryX=0.5;entryY=0;entryDx=0;entryDy=0;" parent="jZQN-osaWB41KmL9wlx--1" source="R4N-x4gXpx2hDFtST6ET-4" target="jIlJejCvV2XS8VSAZp1r-0" edge="1">
                    <mxGeometry relative="1" as="geometry">
                        <mxPoint x="260" y="300" as="targetPoint"/>
                    </mxGeometry>
                </mxCell>
                <mxCell id="R4N-x4gXpx2hDFtST6ET-7" value="process_url(url:string) : bool" style="text;html=1;align=center;verticalAlign=middle;resizable=0;points=[];autosize=1;strokeColor=none;fillColor=none;" parent="jZQN-osaWB41KmL9wlx--1" vertex="1">
                    <mxGeometry x="180" y="94" width="160" height="20" as="geometry"/>
                </mxCell>
                <mxCell id="jIlJejCvV2XS8VSAZp1r-0" value="Return value" style="rhombus;whiteSpace=wrap;html=1;fillColor=#ffffc0;strokeColor=#ff0000;" parent="jZQN-osaWB41KmL9wlx--1" vertex="1">
                    <mxGeometry x="180" y="300" width="160" height="80" as="geometry"/>
                </mxCell>
                <mxCell id="jIlJejCvV2XS8VSAZp1r-2" value="True" style="edgeStyle=orthogonalEdgeStyle;html=1;align=left;verticalAlign=top;endArrow=open;endSize=8;strokeColor=#ff0000;entryX=0.5;entryY=0;entryDx=0;entryDy=0;" parent="jZQN-osaWB41KmL9wlx--1" source="jIlJejCvV2XS8VSAZp1r-0" target="CLQ56QCSTxTuiENRZbxL-0" edge="1">
                    <mxGeometry x="-1" relative="1" as="geometry">
                        <mxPoint x="260" y="460" as="targetPoint"/>
                    </mxGeometry>
                </mxCell>
                <mxCell id="jIlJejCvV2XS8VSAZp1r-3" value="" style="ellipse;html=1;shape=endState;fillColor=#000000;strokeColor=#ff0000;" parent="jZQN-osaWB41KmL9wlx--1" vertex="1">
                    <mxGeometry x="726" y="805" width="30" height="30" as="geometry"/>
                </mxCell>
                <mxCell id="CLQ56QCSTxTuiENRZbxL-0" value="&lt;span style=&quot;text-align: left&quot;&gt;__download_url_content(url:string)&lt;/span&gt;" style="rounded=1;whiteSpace=wrap;html=1;arcSize=40;fontColor=#000000;fillColor=#ffffc0;strokeColor=#ff0000;" parent="jZQN-osaWB41KmL9wlx--1" vertex="1">
                    <mxGeometry x="160" y="440" width="200" height="40" as="geometry"/>
                </mxCell>
                <mxCell id="-TXi_xzbSf2oAfw-9KVI-0" value="Return value" style="rhombus;whiteSpace=wrap;html=1;fillColor=#ffffc0;strokeColor=#ff0000;" parent="jZQN-osaWB41KmL9wlx--1" vertex="1">
                    <mxGeometry x="180" y="540" width="160" height="80" as="geometry"/>
                </mxCell>
                <mxCell id="-TXi_xzbSf2oAfw-9KVI-2" value="False" style="edgeStyle=orthogonalEdgeStyle;html=1;align=left;verticalAlign=bottom;endArrow=open;endSize=8;strokeColor=#ff0000;" parent="jZQN-osaWB41KmL9wlx--1" source="-TXi_xzbSf2oAfw-9KVI-0" edge="1">
                    <mxGeometry x="-1" relative="1" as="geometry">
                        <mxPoint x="440" y="820" as="targetPoint"/>
                        <mxPoint x="350" y="270" as="sourcePoint"/>
                        <Array as="points">
                            <mxPoint x="400" y="580"/>
                            <mxPoint x="400" y="820"/>
                        </Array>
                    </mxGeometry>
                </mxCell>
                <mxCell id="-TXi_xzbSf2oAfw-9KVI-4" value="Return False" style="text;html=1;align=center;verticalAlign=middle;resizable=0;points=[];autosize=1;strokeColor=none;fillColor=none;" parent="jZQN-osaWB41KmL9wlx--1" vertex="1">
                    <mxGeometry x="700" y="780" width="80" height="20" as="geometry"/>
                </mxCell>
                <mxCell id="-TXi_xzbSf2oAfw-9KVI-5" value="bool" style="edgeStyle=orthogonalEdgeStyle;html=1;verticalAlign=bottom;endArrow=open;endSize=8;strokeColor=#ff0000;entryX=0.5;entryY=0;entryDx=0;entryDy=0;exitX=0.5;exitY=1;exitDx=0;exitDy=0;" parent="jZQN-osaWB41KmL9wlx--1" source="CLQ56QCSTxTuiENRZbxL-0" target="-TXi_xzbSf2oAfw-9KVI-0" edge="1">
                    <mxGeometry relative="1" as="geometry">
                        <mxPoint x="304" y="310" as="targetPoint"/>
                        <mxPoint x="304" y="250" as="sourcePoint"/>
                    </mxGeometry>
                </mxCell>
                <mxCell id="-TXi_xzbSf2oAfw-9KVI-6" value="&lt;span style=&quot;text-align: left&quot;&gt;__validate_picture(file : string)&lt;/span&gt;" style="rounded=1;whiteSpace=wrap;html=1;arcSize=40;fontColor=#000000;fillColor=#ffffc0;strokeColor=#ff0000;" parent="jZQN-osaWB41KmL9wlx--1" vertex="1">
                    <mxGeometry x="160" y="680" width="200" height="40" as="geometry"/>
                </mxCell>
                <mxCell id="SUq78A0KMCc2obAZJXYU-0" value="True" style="edgeStyle=orthogonalEdgeStyle;html=1;align=left;verticalAlign=top;endArrow=open;endSize=8;strokeColor=#ff0000;entryX=0.5;entryY=0;entryDx=0;entryDy=0;exitX=0.5;exitY=1;exitDx=0;exitDy=0;" parent="jZQN-osaWB41KmL9wlx--1" source="-TXi_xzbSf2oAfw-9KVI-0" target="-TXi_xzbSf2oAfw-9KVI-6" edge="1">
                    <mxGeometry x="-1" relative="1" as="geometry">
                        <mxPoint x="270" y="450" as="targetPoint"/>
                        <mxPoint x="270" y="390" as="sourcePoint"/>
                        <Array as="points">
                            <mxPoint x="260" y="670"/>
                            <mxPoint x="260" y="670"/>
                        </Array>
                    </mxGeometry>
                </mxCell>
                <mxCell id="pLRcA_VY7l07Q-QWNOT7-1" value="Return value" style="rhombus;whiteSpace=wrap;html=1;fillColor=#ffffc0;strokeColor=#ff0000;" parent="jZQN-osaWB41KmL9wlx--1" vertex="1">
                    <mxGeometry x="180" y="780" width="160" height="80" as="geometry"/>
                </mxCell>
                <mxCell id="pLRcA_VY7l07Q-QWNOT7-2" value="False" style="edgeStyle=orthogonalEdgeStyle;html=1;align=left;verticalAlign=bottom;endArrow=open;endSize=8;strokeColor=#ff0000;entryX=0;entryY=0.5;entryDx=0;entryDy=0;" parent="jZQN-osaWB41KmL9wlx--1" source="pLRcA_VY7l07Q-QWNOT7-1" target="aNLDSrvmot3o_TzzBiNk-0" edge="1">
                    <mxGeometry x="-1" relative="1" as="geometry">
                        <mxPoint x="430" y="820" as="targetPoint"/>
                        <mxPoint x="350" y="510" as="sourcePoint"/>
                    </mxGeometry>
                </mxCell>
                <mxCell id="pLRcA_VY7l07Q-QWNOT7-4" value="bool" style="edgeStyle=orthogonalEdgeStyle;html=1;verticalAlign=bottom;endArrow=open;endSize=8;strokeColor=#ff0000;entryX=0.5;entryY=0;entryDx=0;entryDy=0;" parent="jZQN-osaWB41KmL9wlx--1" source="-TXi_xzbSf2oAfw-9KVI-6" target="pLRcA_VY7l07Q-QWNOT7-1" edge="1">
                    <mxGeometry relative="1" as="geometry">
                        <mxPoint x="304" y="550" as="targetPoint"/>
                        <mxPoint x="260" y="720" as="sourcePoint"/>
                    </mxGeometry>
                </mxCell>
                <mxCell id="pLRcA_VY7l07Q-QWNOT7-5" value="True" style="edgeStyle=orthogonalEdgeStyle;html=1;align=left;verticalAlign=top;endArrow=open;endSize=8;strokeColor=#ff0000;exitX=0.5;exitY=1;exitDx=0;exitDy=0;" parent="jZQN-osaWB41KmL9wlx--1" source="pLRcA_VY7l07Q-QWNOT7-1" edge="1">
                    <mxGeometry x="-1" relative="1" as="geometry">
                        <mxPoint x="260" y="920" as="targetPoint"/>
                        <mxPoint x="270" y="630" as="sourcePoint"/>
                        <Array as="points">
                            <mxPoint x="260" y="910"/>
                            <mxPoint x="260" y="910"/>
                        </Array>
                    </mxGeometry>
                </mxCell>
                <mxCell id="pLRcA_VY7l07Q-QWNOT7-6" value="&lt;span style=&quot;text-align: left&quot;&gt;__process_picture(file : string)&lt;/span&gt;" style="rounded=1;whiteSpace=wrap;html=1;arcSize=40;fontColor=#000000;fillColor=#ffffc0;strokeColor=#ff0000;" parent="jZQN-osaWB41KmL9wlx--1" vertex="1">
                    <mxGeometry x="160" y="920" width="200" height="40" as="geometry"/>
                </mxCell>
                <mxCell id="pLRcA_VY7l07Q-QWNOT7-11" value="" style="ellipse;html=1;shape=endState;fillColor=#000000;strokeColor=#ff0000;" parent="jZQN-osaWB41KmL9wlx--1" vertex="1">
                    <mxGeometry x="444" y="1005" width="30" height="30" as="geometry"/>
                </mxCell>
                <mxCell id="pLRcA_VY7l07Q-QWNOT7-12" value="" style="edgeStyle=orthogonalEdgeStyle;html=1;align=left;verticalAlign=top;endArrow=open;endSize=8;strokeColor=#ff0000;exitX=0.5;exitY=1;exitDx=0;exitDy=0;entryX=0;entryY=0.5;entryDx=0;entryDy=0;" parent="jZQN-osaWB41KmL9wlx--1" source="pLRcA_VY7l07Q-QWNOT7-6" target="pLRcA_VY7l07Q-QWNOT7-11" edge="1">
                    <mxGeometry x="-1" relative="1" as="geometry">
                        <mxPoint x="245" y="1060" as="targetPoint"/>
                        <mxPoint x="245" y="1000" as="sourcePoint"/>
                        <Array as="points">
                            <mxPoint x="260" y="1020"/>
                        </Array>
                    </mxGeometry>
                </mxCell>
                <mxCell id="aNLDSrvmot3o_TzzBiNk-7" style="edgeStyle=orthogonalEdgeStyle;curved=1;html=1;startArrow=classic;startFill=1;endArrow=none;endFill=0;strokeColor=#FF0000;exitX=0;exitY=0.5;exitDx=0;exitDy=0;entryX=1;entryY=0.5;entryDx=0;entryDy=0;" parent="jZQN-osaWB41KmL9wlx--1" source="jIlJejCvV2XS8VSAZp1r-3" target="aNLDSrvmot3o_TzzBiNk-0" edge="1">
                    <mxGeometry relative="1" as="geometry">
                        <mxPoint x="690" y="740" as="targetPoint"/>
                    </mxGeometry>
                </mxCell>
                <mxCell id="aNLDSrvmot3o_TzzBiNk-0" value="&lt;span style=&quot;text-align: left&quot;&gt;__delete_picture(file : string)&lt;/span&gt;" style="rounded=1;whiteSpace=wrap;html=1;arcSize=40;fontColor=#000000;fillColor=#ffffc0;strokeColor=#ff0000;" parent="jZQN-osaWB41KmL9wlx--1" vertex="1">
                    <mxGeometry x="440" y="800" width="200" height="40" as="geometry"/>
                </mxCell>
                <mxCell id="aNLDSrvmot3o_TzzBiNk-8" value="False" style="edgeStyle=orthogonalEdgeStyle;html=1;align=left;verticalAlign=bottom;endArrow=open;endSize=8;strokeColor=#ff0000;exitX=1;exitY=0.5;exitDx=0;exitDy=0;entryX=0;entryY=0.5;entryDx=0;entryDy=0;" parent="jZQN-osaWB41KmL9wlx--1" source="jIlJejCvV2XS8VSAZp1r-0" target="jIlJejCvV2XS8VSAZp1r-3" edge="1">
                    <mxGeometry x="-1" relative="1" as="geometry">
                        <mxPoint x="620.0699999999999" y="690.03" as="targetPoint"/>
                        <mxPoint x="520.0010344827585" y="449.9955172413793" as="sourcePoint"/>
                        <Array as="points">
                            <mxPoint x="680" y="340"/>
                            <mxPoint x="680" y="820"/>
                        </Array>
                    </mxGeometry>
                </mxCell>
                <mxCell id="0" value="Return True" style="text;html=1;align=center;verticalAlign=middle;resizable=0;points=[];autosize=1;strokeColor=none;fillColor=none;" vertex="1" parent="jZQN-osaWB41KmL9wlx--1">
                    <mxGeometry x="419" y="980" width="80" height="20" as="geometry"/>
                </mxCell>
            </root>
        </mxGraphModel>
    </diagram>
</mxfile>